<?xml version="1.0" standalone="yes"?>

<svg version="1.1" viewBox="0.0 0.0 612.0 277.0" fill="none" stroke="none" stroke-linecap="square" stroke-miterlimit="10" xmlns="http://www.w3.org/2000/svg" xmlns:xlink="http://www.w3.org/1999/xlink"><clipPath id="p.0"><path d="m0 0l612.0 0l0 277.0l-612.0 0l0 -277.0z" clip-rule="nonzero"></path></clipPath><g clip-path="url(#p.0)"><path fill="#000000" fill-opacity="0.0" d="m0 0l612.0 0l0 277.0l-612.0 0z" fill-rule="nonzero"></path><path fill="#000000" fill-opacity="0.0" d="m69.10105 16.779528l445.0079 0l0 53.007874l-445.0079 0z" fill-rule="nonzero"></path><path fill="#274e13" d="m104.690926 38.20659l0 16.796875l-5.796875 0l0 -16.796875l-9.109375 0l0 -4.671875l24.03125 0l0 4.671875l-9.125 0zm33.499992 16.796875l0 -8.953125l-14.749992 0l0 8.953125l-5.796875 0l0 -21.46875l5.796875 0l0 7.8125l14.749992 0l0 -7.8125l5.796875 0l0 21.46875l-5.796875 0zm36.453125 -1.0625q-2.640625 0.875 -5.28125 1.25q-2.625 0.390625 -5.375 0.390625q-3.515625 0 -6.265625 -0.75q-2.734375 -0.765625 -4.609375 -2.203125q-1.875 -1.4375 -2.859375 -3.515625q-0.984375 -2.078125 -0.984375 -4.703125q0 -2.4375 0.984375 -4.515625q1.0 -2.09375 2.8125 -3.625q1.828125 -1.546875 4.40625 -2.40625q2.578125 -0.875 5.75 -0.875q2.921875 0 5.34375 0.796875q2.4375 0.78125 4.171875 2.328125q1.75 1.546875 2.703125 3.8125q0.96875 2.265625 0.96875 5.21875l0 1.4375l-21.15625 0q0.28125 1.015625 0.921875 1.859375q0.65625 0.84375 1.765625 1.4375q1.109375 0.59375 2.71875 0.921875q1.625 0.328125 3.875 0.328125q1.59375 0 3.125 -0.1875q1.53125 -0.203125 2.859375 -0.515625q1.328125 -0.328125 2.390625 -0.71875q1.078125 -0.390625 1.734375 -0.78125l0 5.015625zm-4.0 -11.609375q-0.078125 -0.796875 -0.484375 -1.640625q-0.390625 -0.859375 -1.25 -1.546875q-0.859375 -0.6875 -2.25 -1.125q-1.390625 -0.453125 -3.46875 -0.453125q-1.953125 0 -3.375 0.484375q-1.421875 0.484375 -2.390625 1.203125q-0.953125 0.71875 -1.484375 1.546875q-0.53125 0.828125 -0.6875 1.53125l15.390625 0zm43.609375 12.671875l0 -8.953125l-14.75 0l0 8.953125l-5.796875 0l0 -21.46875l5.796875 0l0 7.8125l14.75 0l0 -7.8125l5.796875 0l0 21.46875l-5.796875 0zm12.515625 0l0 -21.46875l5.796875 0l0 21.46875l-5.796875 0zm26.34375 -22.015625q3.15625 0 5.859375 0.546875q2.71875 0.53125 4.984375 1.375l0 5.25q-0.890625 -0.5 -2.015625 -0.96875q-1.109375 -0.46875 -2.421875 -0.828125q-1.3125 -0.359375 -2.8125 -0.578125q-1.5 -0.21875 -3.15625 -0.21875q-2.0625 0 -3.59375 0.296875q-1.53125 0.296875 -2.625 0.796875q-1.09375 0.5 -1.796875 1.171875q-0.703125 0.65625 -1.109375 1.40625q-0.40625 0.75 -0.5625 1.53125q-0.15625 0.78125 -0.15625 1.515625q0 0.640625 0.125 1.390625q0.140625 0.75 0.5 1.5q0.375 0.75 1.03125 1.4375q0.65625 0.6875 1.703125 1.21875q1.0625 0.53125 2.546875 0.859375q1.484375 0.3125 3.53125 0.3125q1.03125 0 1.796875 -0.0625q0.765625 -0.0625 1.390625 -0.171875q0.640625 -0.109375 1.1875 -0.265625q0.5625 -0.15625 1.15625 -0.328125l0 -2.59375l-6.5 0l0 -4.703125l12.296875 0l0 10.96875q-1.15625 0.390625 -2.59375 0.71875q-1.421875 0.3125 -2.953125 0.53125q-1.515625 0.234375 -3.046875 0.359375q-1.53125 0.125 -2.890625 0.125q-2.109375 0 -4.046875 -0.28125q-1.9375 -0.28125 -3.625 -0.859375q-1.671875 -0.59375 -3.0625 -1.5q-1.375 -0.90625 -2.359375 -2.15625q-0.96875 -1.25 -1.515625 -2.859375q-0.53125 -1.625 -0.53125 -3.640625q0 -2.0 0.5625 -3.625q0.5625 -1.625 1.5625 -2.875q1.015625 -1.25 2.421875 -2.15625q1.421875 -0.90625 3.109375 -1.484375q1.703125 -0.59375 3.625 -0.875q1.9375 -0.28125 3.984375 -0.28125zm38.140625 22.015625l0 -8.953125l-14.75 0l0 8.953125l-5.796875 0l0 -21.46875l5.796875 0l0 7.8125l14.75 0l0 -7.8125l5.796875 0l0 21.46875l-5.796875 0zm44.328125 -15.421875q-0.609375 -0.296875 -1.609375 -0.671875q-1.0 -0.375 -2.265625 -0.703125q-1.265625 -0.34375 -2.75 -0.5625q-1.484375 -0.234375 -3.046875 -0.234375q-1.25 0 -2.140625 0.078125q-0.875 0.078125 -1.484375 0.203125q-0.59375 0.125 -0.953125 0.296875q-0.34375 0.15625 -0.53125 0.328125q-0.1875 0.171875 -0.25 0.34375q-0.046875 0.171875 -0.046875 0.3125q0 0.46875 0.46875 0.828125q0.46875 0.34375 1.28125 0.625q0.8125 0.265625 1.890625 0.515625q1.078125 0.234375 2.28125 0.5q1.21875 0.25 2.5 0.5625q1.296875 0.296875 2.5 0.703125q1.21875 0.40625 2.296875 0.953125q1.078125 0.53125 1.890625 1.25q0.8125 0.71875 1.28125 1.65625q0.46875 0.9375 0.46875 2.140625q0 1.546875 -0.546875 2.65625q-0.546875 1.109375 -1.46875 1.875q-0.90625 0.765625 -2.109375 1.234375q-1.203125 0.453125 -2.53125 0.703125q-1.3125 0.25 -2.671875 0.328125q-1.34375 0.078125 -2.5625 0.078125q-3.1875 0 -5.90625 -0.53125q-2.703125 -0.515625 -4.78125 -1.296875l0 -5.125q2.140625 1.1875 4.875 1.859375q2.75 0.671875 5.875 0.671875q1.84375 0 3.0 -0.1875q1.171875 -0.203125 1.828125 -0.5q0.65625 -0.3125 0.890625 -0.671875q0.234375 -0.359375 0.234375 -0.6875q0 -0.515625 -0.46875 -0.890625q-0.46875 -0.390625 -1.28125 -0.671875q-0.8125 -0.296875 -1.890625 -0.53125q-1.078125 -0.25 -2.296875 -0.484375q-1.203125 -0.25 -2.484375 -0.53125q-1.28125 -0.28125 -2.5 -0.65625q-1.203125 -0.390625 -2.28125 -0.890625q-1.078125 -0.515625 -1.890625 -1.203125q-0.8125 -0.703125 -1.28125 -1.609375q-0.46875 -0.921875 -0.46875 -2.125q0 -1.421875 0.5 -2.453125q0.5 -1.03125 1.34375 -1.75q0.859375 -0.734375 1.96875 -1.1875q1.125 -0.453125 2.359375 -0.703125q1.234375 -0.25 2.5 -0.34375q1.265625 -0.09375 2.40625 -0.09375q1.25 0 2.5625 0.125q1.328125 0.125 2.609375 0.359375q1.28125 0.21875 2.46875 0.515625q1.203125 0.296875 2.21875 0.625l0 4.96875zm30.921875 13.953125q-1.125 0.46875 -2.265625 0.84375q-1.140625 0.375 -2.359375 0.640625q-1.21875 0.28125 -2.578125 0.421875q-1.34375 0.140625 -2.890625 0.140625q-3.28125 0 -6.046875 -0.703125q-2.75 -0.703125 -4.75 -2.109375q-1.984375 -1.421875 -3.09375 -3.53125q-1.109375 -2.125 -1.109375 -4.953125q0 -2.828125 1.109375 -4.9375q1.109375 -2.125 3.09375 -3.53125q2.0 -1.421875 4.75 -2.125q2.765625 -0.703125 6.046875 -0.703125q1.546875 0 2.890625 0.140625q1.359375 0.140625 2.578125 0.421875q1.21875 0.265625 2.359375 0.640625q1.140625 0.375 2.265625 0.84375l0 5.21875q-0.890625 -0.484375 -1.875 -0.953125q-0.984375 -0.484375 -2.171875 -0.859375q-1.1875 -0.390625 -2.609375 -0.625q-1.421875 -0.25 -3.203125 -0.25q-2.734375 0 -4.546875 0.5625q-1.796875 0.5625 -2.875 1.5q-1.078125 0.9375 -1.515625 2.15625q-0.4375 1.203125 -0.4375 2.5q0 0.859375 0.1875 1.703125q0.1875 0.828125 0.625 1.578125q0.4375 0.734375 1.140625 1.359375q0.703125 0.625 1.75 1.078125q1.046875 0.453125 2.4375 0.71875q1.40625 0.25 3.234375 0.25q1.78125 0 3.203125 -0.21875q1.421875 -0.234375 2.609375 -0.609375q1.1875 -0.375 2.171875 -0.84375q0.984375 -0.484375 1.875 -0.984375l0 5.21875l0 0zm25.953125 1.46875l0 -8.953125l-14.75 0l0 8.953125l-5.796875 0l0 -21.46875l5.796875 0l0 7.8125l14.75 0l0 -7.8125l5.796875 0l0 21.46875l-5.796875 0zm40.296875 -10.71875q0 2.765625 -1.015625 4.890625q-1.015625 2.109375 -2.90625 3.53125q-1.890625 1.421875 -4.59375 2.15625q-2.6875 0.71875 -6.046875 0.71875q-3.359375 0 -6.078125 -0.71875q-2.703125 -0.734375 -4.609375 -2.15625q-1.90625 -1.421875 -2.9375 -3.53125q-1.03125 -2.125 -1.03125 -4.890625q0 -2.765625 1.03125 -4.875q1.03125 -2.125 2.9375 -3.546875q1.90625 -1.421875 4.609375 -2.140625q2.71875 -0.734375 6.078125 -0.734375q3.359375 0 6.046875 0.734375q2.703125 0.71875 4.59375 2.140625q1.890625 1.421875 2.90625 3.546875q1.015625 2.109375 1.015625 4.875zm-5.859375 0q0 -1.203125 -0.390625 -2.390625q-0.375 -1.203125 -1.359375 -2.15625q-0.96875 -0.953125 -2.65625 -1.546875q-1.6875 -0.59375 -4.296875 -0.59375q-1.75 0 -3.078125 0.28125q-1.328125 0.265625 -2.296875 0.75q-0.96875 0.484375 -1.625 1.140625q-0.65625 0.640625 -1.046875 1.390625q-0.390625 0.734375 -0.5625 1.546875q-0.15625 0.796875 -0.15625 1.578125q0 0.796875 0.15625 1.609375q0.171875 0.8125 0.5625 1.5625q0.390625 0.734375 1.046875 1.375q0.65625 0.640625 1.625 1.125q0.96875 0.46875 2.296875 0.75q1.328125 0.265625 3.078125 0.265625q2.609375 0 4.296875 -0.59375q1.6875 -0.59375 2.65625 -1.546875q0.984375 -0.953125 1.359375 -2.140625q0.390625 -1.203125 0.390625 -2.40625zm38.921875 0q0 2.765625 -1.015625 4.890625q-1.015625 2.109375 -2.90625 3.53125q-1.890625 1.421875 -4.59375 2.15625q-2.6875 0.71875 -6.046875 0.71875q-3.359375 0 -6.078125 -0.71875q-2.703125 -0.734375 -4.609375 -2.15625q-1.90625 -1.421875 -2.9375 -3.53125q-1.03125 -2.125 -1.03125 -4.890625q0 -2.765625 1.03125 -4.875q1.03125 -2.125 2.9375 -3.546875q1.90625 -1.421875 4.609375 -2.140625q2.71875 -0.734375 6.078125 -0.734375q3.359375 0 6.046875 0.734375q2.703125 0.71875 4.59375 2.140625q1.890625 1.421875 2.90625 3.546875q1.015625 2.109375 1.015625 4.875zm-5.859375 0q0 -1.203125 -0.390625 -2.390625q-0.375 -1.203125 -1.359375 -2.15625q-0.96875 -0.953125 -2.65625 -1.546875q-1.6875 -0.59375 -4.296875 -0.59375q-1.75 0 -3.078125 0.28125q-1.328125 0.265625 -2.296875 0.75q-0.96875 0.484375 -1.625 1.140625q-0.65625 0.640625 -1.046875 1.390625q-0.390625 0.734375 -0.5625 1.546875q-0.15625 0.796875 -0.15625 1.578125q0 0.796875 0.15625 1.609375q0.171875 0.8125 0.5625 1.5625q0.390625 0.734375 1.046875 1.375q0.65625 0.640625 1.625 1.125q0.96875 0.46875 2.296875 0.75q1.328125 0.265625 3.078125 0.265625q2.609375 0 4.296875 -0.59375q1.6875 -0.59375 2.65625 -1.546875q0.984375 -0.953125 1.359375 -2.140625q0.390625 -1.203125 0.390625 -2.40625zm16.9375 1.53125q0 1.34375 0.25 2.203125q0.25 0.84375 0.8125 1.34375q0.5625 0.5 1.453125 0.6875q0.90625 0.1875 2.21875 0.1875l11.0 0l0 4.765625l-12.1875 0q-2.53125 0 -4.3125 -0.40625q-1.765625 -0.421875 -2.890625 -1.28125q-1.125 -0.875 -1.640625 -2.203125q-0.5 -1.328125 -0.5 -3.15625l0 -14.421875l5.796875 0l0 12.28125z" fill-rule="nonzero"></path><path fill="#000000" fill-opacity="0.0" d="m69.10105 166.77953l445.0079 0l0 53.007874l-445.0079 0z" fill-rule="nonzero"></path><path fill="#274e13" d="m221.46436 190.86284q0 1.609375 -0.46875 2.96875q-0.46875 1.34375 -1.515625 2.328125q-1.03125 0.96875 -2.6875 1.515625q-1.65625 0.546875 -4.03125 0.546875l-9.625 0l0 6.78125l-5.796875 0l0 -21.46875l15.421875 0q2.375 0 4.03125 0.546875q1.65625 0.53125 2.6875 1.515625q1.046875 0.96875 1.515625 2.3125q0.46875 1.34375 0.46875 2.953125zm-5.859375 0.09375q0 -0.75 -0.21875 -1.28125q-0.203125 -0.546875 -0.6875 -0.890625q-0.484375 -0.34375 -1.265625 -0.5q-0.78125 -0.171875 -1.921875 -0.171875l-8.375 0l0 5.53125l8.375 0q1.140625 0 1.921875 -0.125q0.78125 -0.140625 1.265625 -0.453125q0.484375 -0.328125 0.6875 -0.84375q0.21875 -0.515625 0.21875 -1.265625zm16.453125 14.046875l-5.796875 0l0 -21.46875l14.53125 0q2.34375 0 3.96875 0.484375q1.640625 0.484375 2.65625 1.375q1.03125 0.890625 1.484375 2.15625q0.46875 1.25 0.46875 2.796875q0 1.359375 -0.390625 2.375q-0.375 1.015625 -1.03125 1.75q-0.640625 0.71875 -1.5 1.21875q-0.859375 0.5 -1.8125 0.828125l7.03125 8.484375l-6.78125 0l-6.5 -7.90625l-6.328125 0l0 7.90625zm11.453125 -14.6875q0 -0.625 -0.171875 -1.0625q-0.15625 -0.4375 -0.5625 -0.703125q-0.40625 -0.28125 -1.09375 -0.40625q-0.671875 -0.125 -1.6875 -0.125l-7.9375 0l0 4.59375l7.9375 0q1.015625 0 1.6875 -0.125q0.6875 -0.125 1.09375 -0.390625q0.40625 -0.28125 0.5625 -0.71875q0.171875 -0.4375 0.171875 -1.0625zm40.09375 3.96875q0 2.765625 -1.015625 4.890625q-1.015625 2.109375 -2.90625 3.53125q-1.890625 1.421875 -4.59375 2.15625q-2.6875 0.71875 -6.046875 0.71875q-3.359375 0 -6.078125 -0.71875q-2.703125 -0.734375 -4.609375 -2.15625q-1.90625 -1.421875 -2.9375 -3.53125q-1.03125 -2.125 -1.03125 -4.890625q0 -2.765625 1.03125 -4.875q1.03125 -2.125 2.9375 -3.546875q1.90625 -1.421875 4.609375 -2.140625q2.71875 -0.734375 6.078125 -0.734375q3.359375 0 6.046875 0.734375q2.703125 0.71875 4.59375 2.140625q1.890625 1.421875 2.90625 3.546875q1.015625 2.109375 1.015625 4.875zm-5.859375 0q0 -1.203125 -0.390625 -2.390625q-0.375 -1.203125 -1.359375 -2.15625q-0.96875 -0.953125 -2.65625 -1.546875q-1.6875 -0.59375 -4.296875 -0.59375q-1.75 0 -3.078125 0.28125q-1.328125 0.265625 -2.296875 0.75q-0.96875 0.484375 -1.625 1.140625q-0.65625 0.640625 -1.046875 1.390625q-0.390625 0.734375 -0.5625 1.546875q-0.15625 0.796875 -0.15625 1.578125q0 0.796875 0.15625 1.609375q0.171875 0.8125 0.5625 1.5625q0.390625 0.734375 1.046875 1.375q0.65625 0.640625 1.625 1.125q0.96875 0.46875 2.296875 0.75q1.328125 0.265625 3.078125 0.265625q2.609375 0 4.296875 -0.59375q1.6875 -0.59375 2.65625 -1.546875q0.984375 -0.953125 1.359375 -2.140625q0.390625 -1.203125 0.390625 -2.40625zm26.6875 2.78125q0 2.140625 -0.703125 3.6875q-0.6875 1.546875 -2.03125 2.546875q-1.328125 1.0 -3.265625 1.484375q-1.9375 0.46875 -4.421875 0.46875q-1.171875 0 -2.40625 -0.125q-1.234375 -0.109375 -2.375 -0.28125q-1.140625 -0.171875 -2.109375 -0.359375q-0.953125 -0.203125 -1.59375 -0.375l0 -5.03125q0.65625 0.265625 1.4375 0.546875q0.78125 0.265625 1.734375 0.484375q0.96875 0.21875 2.125 0.359375q1.171875 0.140625 2.578125 0.140625q1.515625 0 2.515625 -0.328125q1.015625 -0.34375 1.625 -0.9375q0.609375 -0.609375 0.859375 -1.421875q0.25 -0.8125 0.25 -1.78125l0 -12.609375l5.78125 0l0 13.53125zm6.5625 7.9375l0 -21.46875l21.734375 0l0 4.578125l-15.78125 0l0 3.546875l14.96875 0l0 4.578125l-14.96875 0l0 4.1875l16.0 0l0 4.578125l-21.953125 0zm51.203125 -1.46875q-1.125 0.46875 -2.265625 0.84375q-1.140625 0.375 -2.359375 0.640625q-1.21875 0.28125 -2.578125 0.421875q-1.34375 0.140625 -2.890625 0.140625q-3.28125 0 -6.046875 -0.703125q-2.75 -0.703125 -4.75 -2.109375q-1.984375 -1.421875 -3.09375 -3.53125q-1.109375 -2.125 -1.109375 -4.953125q0 -2.828125 1.109375 -4.9375q1.109375 -2.125 3.09375 -3.53125q2.0 -1.421875 4.75 -2.125q2.765625 -0.703125 6.046875 -0.703125q1.546875 0 2.890625 0.140625q1.359375 0.140625 2.578125 0.421875q1.21875 0.265625 2.359375 0.640625q1.140625 0.375 2.265625 0.84375l0 5.21875q-0.890625 -0.484375 -1.875 -0.953125q-0.984375 -0.484375 -2.171875 -0.859375q-1.1875 -0.390625 -2.609375 -0.625q-1.421875 -0.25 -3.203125 -0.25q-2.734375 0 -4.546875 0.5625q-1.796875 0.5625 -2.875 1.5q-1.078125 0.9375 -1.515625 2.15625q-0.4375 1.203125 -0.4375 2.5q0 0.859375 0.1875 1.703125q0.1875 0.828125 0.625 1.578125q0.4375 0.734375 1.140625 1.359375q0.703125 0.625 1.75 1.078125q1.046875 0.453125 2.4375 0.71875q1.40625 0.25 3.234375 0.25q1.78125 0 3.203125 -0.21875q1.421875 -0.234375 2.609375 -0.609375q1.1875 -0.375 2.171875 -0.84375q0.984375 -0.484375 1.875 -0.984375l0 5.21875l0 0zm17.4375 -15.328125l0 16.796875l-5.796875 0l0 -16.796875l-9.109375 0l0 -4.671875l24.03125 0l0 4.671875l-9.125 0z" fill-rule="nonzero"></path><path fill="#000000" fill-opacity="0.0" d="m69.10105 210.29134l445.0079 0l0 53.00789l-445.0079 0z" fill-rule="nonzero"></path><path fill="#274e13" d="m199.55692 237.76384q0 1.609375 0.359375 3.109375q0.375 1.5 1.046875 2.84375q0.671875 1.34375 1.609375 2.5q0.953125 1.140625 2.125 2.015625l-1.15625 1.21875q-1.3125 -1.0 -2.390625 -2.28125q-1.078125 -1.28125 -1.84375 -2.765625q-0.765625 -1.5 -1.171875 -3.171875q-0.40625 -1.671875 -0.40625 -3.46875q0 -1.796875 0.40625 -3.46875q0.40625 -1.671875 1.171875 -3.15625q0.765625 -1.5 1.84375 -2.765625q1.078125 -1.28125 2.390625 -2.296875l1.15625 1.21875q-1.171875 0.890625 -2.125 2.03125q-0.9375 1.140625 -1.609375 2.5q-0.671875 1.34375 -1.046875 2.84375q-0.359375 1.5 -0.359375 3.09375z" fill-rule="nonzero"></path><path fill="#274e13" d="m223.4636 247.45134l-2.609375 0l0 -9.53125l-8.296875 0l0 9.53125l-2.59375 0l0 -20.625l2.59375 0l0 8.875l8.296875 0l0 -8.875l2.609375 0l0 20.625zm14.577499 -9.53125l-7.296875 0l0 7.3125l8.5 0l0 2.21875l-11.09375 0l0 -20.625l10.953125 0l0 2.25l-8.359375 0l0 6.625l7.296875 0l0 2.21875zm7.2825775 7.3125l8.09375 0l0 2.21875l-10.703125 0l0 -20.625l2.609375 0l0 18.40625zm13.918121 -5.859375l0 8.078125l-2.59375 0l0 -20.625l6.578125 0q2.875 0 4.515625 1.734375q1.640625 1.71875 1.640625 4.578125q0 2.96875 -1.5625 4.578125q-1.5625 1.609375 -4.40625 1.65625l-4.171875 0zm0 -2.21875l3.984375 0q1.71875 0 2.640625 -1.03125q0.921875 -1.03125 0.921875 -2.953125q0 -1.859375 -0.953125 -2.96875q-0.9375 -1.125 -2.59375 -1.125l-4.0 0l0 8.078125zm22.96988 2.21875l0 8.078125l-2.59375 0l0 -20.625l6.578125 0q2.875 0 4.515625 1.734375q1.640625 1.71875 1.640625 4.578125q0 2.96875 -1.5625 4.578125q-1.5625 1.609375 -4.40625 1.65625l-4.171875 0zm0 -2.21875l3.984375 0q1.71875 0 2.640625 -1.03125q0.921875 -1.03125 0.921875 -2.953125q0 -1.859375 -0.953125 -2.96875q-0.9375 -1.125 -2.59375 -1.125l-4.0 0l0 8.078125zm12.784882 1.921875q0 -3.328125 1.625 -5.28125q1.625 -1.953125 4.28125 -1.953125q2.65625 0 4.28125 1.90625q1.625 1.890625 1.671875 5.171875l0 1.609375q0 3.328125 -1.625 5.265625q-1.609375 1.9375 -4.296875 1.9375q-2.671875 0 -4.28125 -1.875q-1.59375 -1.890625 -1.65625 -5.109375l0 -1.671875zm2.515625 1.453125q0 2.359375 0.921875 3.71875q0.921875 1.34375 2.5 1.34375q3.3125 0 3.40625 -4.78125l0 -1.734375q0 -2.34375 -0.9375 -3.703125q-0.921875 -1.375 -2.5 -1.375q-1.546875 0 -2.46875 1.375q-0.921875 1.359375 -0.921875 3.6875l0 1.46875zm19.065094 -6.046875q-0.53125 -0.09375 -1.140625 -0.09375q-1.921875 0 -2.6875 2.109375l0 10.953125l-2.5 0l0 -15.328125l2.4375 0l0.03125 1.5625q1.015625 -1.84375 2.84375 -1.84375q0.59375 0 1.0 0.203125l0.015625 2.4375zm5.8747253 -6.0625l0 3.703125l2.3125 0l0 2.03125l-2.3125 0l0 9.5q0 0.90625 0.296875 1.375q0.296875 0.46875 1.015625 0.46875q0.5 0 1.015625 -0.171875l-0.03125 2.125q-0.859375 0.28125 -1.75 0.28125q-1.484375 0 -2.265625 -1.0625q-0.78125 -1.0625 -0.78125 -3.0l0 -9.515625l-2.328125 0l0 -2.03125l2.328125 0l0 -3.703125l2.5 0zm8.085693 19.03125l-2.515625 0l0 -21.75l2.515625 0l0 21.75zm11.888153 0q-0.21875 -0.5 -0.3125 -1.671875q-1.34375 1.953125 -3.40625 1.953125q-2.078125 0 -3.25 -1.15625q-1.171875 -1.171875 -1.171875 -3.296875q0 -2.34375 1.578125 -3.71875q1.59375 -1.375 4.359375 -1.40625l1.84375 0l0 -1.625q0 -1.375 -0.609375 -1.953125q-0.609375 -0.578125 -1.859375 -0.578125q-1.125 0 -1.84375 0.671875q-0.703125 0.671875 -0.703125 1.703125l-2.5 0q0 -1.171875 0.6875 -2.234375q0.6875 -1.078125 1.859375 -1.6875q1.1875 -0.609375 2.625 -0.609375q2.359375 0 3.578125 1.171875q1.234375 1.171875 1.25 3.40625l0 7.734375q0.015625 1.765625 0.484375 3.0625l0 0.234375l-2.609375 0zm-3.328125 -2.0q0.90625 0 1.734375 -0.5q0.84375 -0.515625 1.234375 -1.28125l0 -3.65625l-1.421875 0q-1.78125 0.03125 -2.8125 0.8125q-1.03125 0.765625 -1.03125 2.15625q0 1.296875 0.515625 1.890625q0.53125 0.578125 1.78125 0.578125zm11.860809 -13.328125l0.078125 1.65625q1.453125 -1.9375 3.71875 -1.9375q4.0625 0 4.125 5.421875l0 10.1875l-2.5 0l0 -10.0625q0 -1.796875 -0.609375 -2.546875q-0.59375 -0.765625 -1.796875 -0.765625q-0.9375 0 -1.6875 0.625q-0.734375 0.609375 -1.1875 1.625l0 11.125l-2.5 0l0 -15.328125l2.359375 0zm11.300842 6.96875q0 -3.53125 1.328125 -5.390625q1.328125 -1.859375 3.796875 -1.859375q2.203125 0 3.421875 1.78125l0 -7.921875l2.515625 0l0 21.75l-2.296875 0l-0.125 -1.640625q-1.234375 1.921875 -3.53125 1.921875q-2.375 0 -3.734375 -1.84375q-1.34375 -1.84375 -1.375 -5.21875l0 -1.578125zm2.515625 1.4375q0 2.578125 0.75 3.796875q0.765625 1.203125 2.5 1.203125q1.875 0 2.78125 -1.890625l0 -7.734375q-0.953125 -1.828125 -2.765625 -1.828125q-1.734375 0 -2.5 1.21875q-0.765625 1.203125 -0.765625 3.703125l0 1.53125z" fill-rule="nonzero"></path><path fill="#274e13" d="m383.52762 237.76384q0 -1.59375 -0.375 -3.09375q-0.359375 -1.5 -1.046875 -2.84375q-0.671875 -1.359375 -1.625 -2.5q-0.9375 -1.140625 -2.109375 -2.03125l1.15625 -1.21875q1.328125 1.015625 2.40625 2.296875q1.078125 1.265625 1.828125 2.765625q0.765625 1.484375 1.171875 3.15625q0.421875 1.671875 0.421875 3.46875q0 1.796875 -0.421875 3.46875q-0.40625 1.671875 -1.171875 3.171875q-0.75 1.484375 -1.828125 2.765625q-1.078125 1.28125 -2.40625 2.28125l-1.15625 -1.21875q1.171875 -0.875 2.109375 -2.015625q0.953125 -1.15625 1.625 -2.5q0.6875 -1.34375 1.046875 -2.84375q0.375 -1.5 0.375 -3.109375z" fill-rule="nonzero"></path><path fill="#000000" fill-opacity="0.0" d="m48.31496 63.755905l518.5827 0l0 57.543304l-518.5827 0z" fill-rule="nonzero"></path><path fill="#c10000" d="m74.89536 106.92756l0 -26.84375l27.171875 0l0 5.734375l-19.734375 0l0 4.421875l18.71875 0l0 5.734375l-18.71875 0l0 5.234375l20.0 0l0 5.71875l-27.4375 0zm59.777336 0l-18.093742 -18.4375l0 18.4375l-7.25 0l0 -26.84375l7.875 0l18.124992 18.515625l0 -18.515625l7.203125 0l0 26.84375l-7.859375 0zm34.257812 0l-8.4375 0l-13.5625 -26.84375l8.078125 0l9.765625 20.203125l9.75 -20.203125l8.078125 0l-13.671875 26.84375zm18.074219 0l0 -26.84375l7.25 0l0 26.84375l-7.25 0zm22.894531 0l-7.25 0l0 -26.84375l18.15625 0q2.9375 0 4.96875 0.609375q2.046875 0.609375 3.328125 1.71875q1.28125 1.109375 1.859375 2.6875q0.578125 1.578125 0.578125 3.5q0 1.703125 -0.484375 2.984375q-0.484375 1.265625 -1.296875 2.171875q-0.796875 0.90625 -1.875 1.53125q-1.078125 0.625 -2.265625 1.03125l8.78125 10.609375l-8.46875 0l-8.125 -9.890625l-7.90625 0l0 9.890625zm14.3125 -18.359375q0 -0.78125 -0.203125 -1.328125q-0.203125 -0.546875 -0.71875 -0.890625q-0.5 -0.34375 -1.359375 -0.5q-0.84375 -0.15625 -2.109375 -0.15625l-9.921875 0l0 5.75l9.921875 0q1.265625 0 2.109375 -0.15625q0.859375 -0.15625 1.359375 -0.5q0.515625 -0.34375 0.71875 -0.890625q0.203125 -0.546875 0.203125 -1.328125zm50.109375 4.953125q0 3.46875 -1.265625 6.109375q-1.265625 2.640625 -3.640625 4.421875q-2.359375 1.78125 -5.734375 2.6875q-3.359375 0.90625 -7.5625 0.90625q-4.1875 0 -7.578125 -0.90625q-3.390625 -0.90625 -5.78125 -2.6875q-2.375 -1.78125 -3.671875 -4.421875q-1.28125 -2.640625 -1.28125 -6.109375q0 -3.453125 1.28125 -6.09375q1.296875 -2.65625 3.671875 -4.421875q2.390625 -1.78125 5.78125 -2.6875q3.390625 -0.90625 7.578125 -0.90625q4.203125 0 7.5625 0.90625q3.375 0.90625 5.734375 2.6875q2.375 1.765625 3.640625 4.421875q1.265625 2.640625 1.265625 6.09375zm-7.3125 0q0 -1.5 -0.484375 -2.984375q-0.484375 -1.5 -1.703125 -2.6875q-1.21875 -1.203125 -3.328125 -1.9375q-2.109375 -0.75 -5.375 -0.75q-2.1875 0 -3.84375 0.34375q-1.65625 0.34375 -2.875 0.953125q-1.203125 0.609375 -2.03125 1.421875q-0.8125 0.796875 -1.3125 1.734375q-0.484375 0.921875 -0.6875 1.9375q-0.203125 1.0 -0.203125 1.96875q0 1.0 0.203125 2.015625q0.203125 1.015625 0.6875 1.953125q0.5 0.921875 1.3125 1.71875q0.828125 0.796875 2.03125 1.40625q1.21875 0.59375 2.875 0.9375q1.65625 0.328125 3.84375 0.328125q3.265625 0 5.375 -0.734375q2.109375 -0.75 3.328125 -1.9375q1.21875 -1.1875 1.703125 -2.671875q0.484375 -1.5 0.484375 -3.015625zm39.265625 13.40625l-18.09375 -18.4375l0 18.4375l-7.25 0l0 -26.84375l7.875 0l18.125 18.515625l0 -18.515625l7.203125 0l0 26.84375l-7.859375 0zm50.382812 0l0 -18.84375l-9.96875 18.84375l-6.953125 0l-9.953125 -18.84375l0 18.84375l-7.25 0l0 -26.84375l9.84375 0l10.84375 20.3125l10.828125 -20.3125l9.8125 0l0 26.84375l-7.203125 0zm15.6015625 0l0 -26.84375l27.171875 0l0 5.734375l-19.734375 0l0 4.421875l18.71875 0l0 5.734375l-18.71875 0l0 5.234375l20.0 0l0 5.71875l-27.4375 0zm59.777344 0l-18.09375 -18.4375l0 18.4375l-7.25 0l0 -26.84375l7.875 0l18.125 18.515625l0 -18.515625l7.203125 0l0 26.84375l-7.859375 0zm31.289062 -21.0l0 21.0l-7.234375 0l0 -21.0l-11.390625 0l0 -5.84375l30.03125 0l0 5.84375l-11.40625 0zm37.76172 15.921875l-14.96875 0l-2.515625 5.078125l-8.078125 0l14.03125 -26.84375l8.09375 0l14.046875 26.84375l-8.09375 0l-2.515625 -5.078125zm-12.359375 -5.234375l9.796875 0l-4.875 -9.890625l-4.921875 9.890625zm27.359344 10.3125l0 -26.84375l7.25 0l0 20.96875l19.578125 0l0 5.875l-26.828125 0z" fill-rule="nonzero"></path><path fill="#000000" fill-opacity="0.0" d="m45.102364 115.267715l518.5827 0l0 57.543304l-518.5827 0z" fill-rule="nonzero"></path><path fill="#c10000" d="m137.88393 158.43936l0 -26.84375l7.25 0l0 20.96875l19.578125 0l0 5.875l-26.828125 0zm32.63672 0l0 -26.84375l27.171875 0l0 5.734375l-19.734375 0l0 4.421875l18.71875 0l0 5.734375l-18.71875 0l0 5.234375l20.0 0l0 5.71875l-27.4375 0zm55.996094 -5.078125l-14.96875 0l-2.515625 5.078125l-8.078125 0l14.03125 -26.84375l8.09375 0l14.046875 26.84375l-8.09375 0l-2.515625 -5.078125zm-12.359375 -5.234375l9.796875 0l-4.875 -9.890625l-4.921875 9.890625zm60.23439 -3.125q0 2.578125 -0.578125 4.578125q-0.5625 2.0 -1.59375 3.484375q-1.015625 1.484375 -2.453125 2.53125q-1.4375 1.03125 -3.203125 1.65625q-1.75 0.625 -3.78125 0.90625q-2.03125 0.28125 -4.234375 0.28125l-17.031265 0l0 -26.84375l16.98439 0q2.21875 0 4.25 0.296875q2.03125 0.28125 3.796875 0.90625q1.765625 0.625 3.203125 1.65625q1.453125 1.015625 2.46875 2.515625q1.03125 1.484375 1.59375 3.484375q0.578125 1.984375 0.578125 4.546875zm-7.3125 0q0 -1.9375 -0.5 -3.359375q-0.5 -1.421875 -1.609375 -2.34375q-1.09375 -0.9375 -2.875 -1.390625q-1.765625 -0.46875 -4.328125 -0.46875l-9.000015 0l0 15.15625l9.000015 0q2.5625 0 4.328125 -0.453125q1.78125 -0.46875 2.875 -1.40625q1.109375 -0.953125 1.609375 -2.375q0.5 -1.421875 0.5 -3.359375zm13.910156 13.4375l0 -26.84375l27.171844 0l0 5.734375l-19.734344 0l0 4.421875l18.71872 0l0 5.734375l-18.71872 0l0 5.234375l19.99997 0l0 5.71875l-27.43747 0zm41.683563 0l-7.25 0l0 -26.84375l18.15625 0q2.9375 0 4.96875 0.609375q2.046875 0.609375 3.328125 1.71875q1.28125 1.109375 1.859375 2.6875q0.578125 1.578125 0.578125 3.5q0 1.703125 -0.484375 2.984375q-0.484375 1.265625 -1.296875 2.171875q-0.796875 0.90625 -1.875 1.53125q-1.078125 0.625 -2.265625 1.03125l8.78125 10.609375l-8.46875 0l-8.125 -9.890625l-7.90625 0l0 9.890625zm14.3125 -18.359375q0 -0.78125 -0.203125 -1.328125q-0.203125 -0.546875 -0.71875 -0.890625q-0.5 -0.34375 -1.359375 -0.5q-0.84375 -0.15625 -2.109375 -0.15625l-9.921875 0l0 5.75l9.921875 0q1.265625 0 2.109375 -0.15625q0.859375 -0.15625 1.359375 -0.5q0.515625 -0.34375 0.71875 -0.890625q0.203125 -0.546875 0.203125 -1.328125zm40.109375 -0.921875q-0.75 -0.375 -2.0 -0.84375q-1.25 -0.46875 -2.84375 -0.875q-1.578125 -0.421875 -3.4375 -0.703125q-1.84375 -0.296875 -3.796875 -0.296875q-1.5625 0 -2.671875 0.109375q-1.109375 0.09375 -1.859375 0.25q-0.75 0.15625 -1.1875 0.359375q-0.4375 0.203125 -0.671875 0.421875q-0.234375 0.21875 -0.3125 0.4375q-0.0625 0.203125 -0.0625 0.375q0 0.59375 0.578125 1.03125q0.59375 0.4375 1.609375 0.78125q1.015625 0.34375 2.359375 0.65625q1.359375 0.296875 2.859375 0.625q1.515625 0.3125 3.125 0.703125q1.625 0.375 3.125 0.890625q1.515625 0.5 2.859375 1.171875q1.359375 0.671875 2.375 1.578125q1.015625 0.890625 1.59375 2.0625q0.59375 1.171875 0.59375 2.671875q0 1.9375 -0.6875 3.328125q-0.6875 1.375 -1.828125 2.34375q-1.140625 0.953125 -2.640625 1.53125q-1.5 0.578125 -3.15625 0.890625q-1.65625 0.3125 -3.34375 0.40625q-1.6875 0.09375 -3.203125 0.09375q-3.984375 0 -7.375 -0.65625q-3.390625 -0.65625 -5.984375 -1.625l0 -6.40625q2.671875 1.484375 6.09375 2.328125q3.4375 0.828125 7.34375 0.828125q2.296875 0 3.75 -0.234375q1.453125 -0.25 2.265625 -0.625q0.828125 -0.390625 1.125 -0.828125q0.296875 -0.453125 0.296875 -0.859375q0 -0.65625 -0.59375 -1.125q-0.578125 -0.484375 -1.59375 -0.84375q-1.015625 -0.359375 -2.375 -0.65625q-1.34375 -0.3125 -2.859375 -0.609375q-1.5 -0.3125 -3.109375 -0.65625q-1.59375 -0.359375 -3.109375 -0.828125q-1.515625 -0.484375 -2.875 -1.109375q-1.34375 -0.640625 -2.359375 -1.5q-1.015625 -0.875 -1.609375 -2.015625q-0.578125 -1.15625 -0.578125 -2.65625q0 -1.78125 0.625 -3.0625q0.625 -1.296875 1.6875 -2.203125q1.078125 -0.90625 2.46875 -1.46875q1.390625 -0.5625 2.9375 -0.875q1.546875 -0.3125 3.125 -0.421875q1.578125 -0.125 3.015625 -0.125q1.5625 0 3.203125 0.15625q1.65625 0.15625 3.25 0.4375q1.609375 0.28125 3.09375 0.65625q1.5 0.359375 2.765625 0.78125l0 6.203125zm34.777344 19.28125l0 -11.1875l-18.4375 0l0 11.1875l-7.25 0l0 -26.84375l7.25 0l0 9.765625l18.4375 0l0 -9.765625l7.234375 0l0 26.84375l-7.234375 0zm15.640625 0l0 -26.84375l7.25 0l0 26.84375l-7.25 0zm45.80078 -17.671875q0 2.0 -0.59375 3.703125q-0.578125 1.6875 -1.875 2.90625q-1.296875 1.21875 -3.375 1.90625q-2.0625 0.671875 -5.03125 0.671875l-12.03125 0l0 8.484375l-7.25 0l0 -26.84375l19.28125 0q2.96875 0 5.03125 0.6875q2.078125 0.671875 3.375 1.890625q1.296875 1.21875 1.875 2.90625q0.59375 1.671875 0.59375 3.6875zm-7.328125 0.109375q0 -0.9375 -0.265625 -1.609375q-0.265625 -0.671875 -0.875 -1.09375q-0.59375 -0.4375 -1.578125 -0.640625q-0.96875 -0.203125 -2.390625 -0.203125l-10.46875 0l0 6.90625l10.46875 0q1.421875 0 2.390625 -0.15625q0.984375 -0.171875 1.578125 -0.5625q0.609375 -0.40625 0.875 -1.046875q0.265625 -0.65625 0.265625 -1.59375z" fill-rule="nonzero"></path><path fill="#000000" fill-opacity="0.0" d="m215.6063 270.0l152.0 0" fill-rule="nonzero"></path><path stroke="#000000" stroke-width="1.0" stroke-linejoin="round" stroke-linecap="butt" d="m215.6063 270.0l152.0 0" fill-rule="nonzero"></path></g></svg>

